<?xml version="1.0" encoding="UTF-8"?>
<svg width="200" height="200" viewBox="0 0 30 44" fill="none" xmlns="http://www.w3.org/2000/svg">
    <defs>
        <linearGradient id="mobiusGradient" x1="0%" y1="0%" x2="100%" y2="100%">
            <stop offset="0%" stop-color="#FF6B35"/>
            <stop offset="50%" stop-color="#FF8C5A"/>
            <stop offset="100%" stop-color="#2E8B57"/>
        </linearGradient>
        
        <linearGradient id="shadowGradient" x1="0%" y1="0%" x2="100%" y2="0%">
            <stop offset="0%" stop-color="#1A3C34" stop-opacity="0.8"/>
            <stop offset="100%" stop-color="#2E8B57" stop-opacity="0.8"/>
        </linearGradient>
        
        <filter id="glow" x="-50%" y="-50%" width="200%" height="200%">
            <feGaussianBlur stdDeviation="2" result="blur"/>
            <feMerge>
                <feMergeNode in="blur"/>
                <feMergeNode in="SourceGraphic"/>
            </feMerge>
        </filter>
        
        <style>
            @keyframes rotate {
                0% { transform: rotate(0deg); }
                100% { transform: rotate(360deg); }
            }
            @keyframes pulse {
                0%, 100% { opacity: 0.8; }
                50% { opacity: 1; }
            }
            .mobius-path {
                animation: rotate 25s linear infinite;
                transform-origin: center;
            }
        </style>
    </defs>
    
    <!-- Фоновая тень -->
    <path d="M11.5623 18.2529L16.0623 20.7529C19.3715 15.5529 19.7745 11.9195 19.5623 10.7529C18.5623 6.25286 18.5623 7.25286 16.5623 4.25286C15.2685 2.3122 12.7289 1.0862 11.5623 0.752861C10.3956 0.419528 7.36228 0.152861 4.56228 1.75286C1.76228 3.35286 0.728946 7.08619 0.562279 8.75286C0.395613 9.75286 0.46228 12.5529 2.06228 15.7529C3.66228 18.9529 7.06228 21.0862 8.56228 21.7529L16.0623 25.7529C17.0623 26.5862 19.1623 28.4529 19.5623 29.2529C20.0623 30.2529 20.0623 33.2529 17.5623 35.2529C15.5623 36.8529 12.7289 36.2529 11.5623 35.7529C9.06229 34.2529 10.0623 33.2529 10.0623 31.7529C10.0623 30.5529 12.0623 26.9195 13.0623 25.2529L8.06228 22.7529C6.56228 25.5862 3.46228 31.4529 3.06228 32.2529C2.66228 33.0529 1.89561 35.2529 1.56228 36.2529C1.39561 37.2529 1.36228 39.6529 2.56228 41.2529C3.76228 42.8529 6.06228 43.9195 7.06228 44.2529C11.0623 45.2529 12.0623 45.2529 17.0623 44.2529C21.0623 43.4529 25.0623 39.9195 26.5623 38.2529C27.3956 37.2529 28.8623 34.5529 28.0623 31.7529C27.2623 28.9529 23.0623 25.5862 21.0623 24.2529L10.0623 18.2529C8.46228 17.4529 7.09228 16.7829 5.56228 15.2529C5.06228 14.7529 2.56228 12.8957 5.56228 10.7529C8.36228 8.75286 12.0623 8.58619 13.5623 8.75286C14.7289 8.75286 16.7623 9.45286 15.5623 12.2529C14.3623 15.0529 12.3956 17.4195 11.5623 18.2529Z" 
          fill="url(#shadowGradient)" 
          filter="url(#glow)"
          opacity="0.3"/>
    
    <!-- Основная лента Мёбиуса -->
    <g class="mobius-path">
        <path d="M11.0623 17.7529L15.5623 20.2529C18.8715 15.0529 19.2745 11.4195 19.0623 10.2529C18.0623 5.75286 18.0623 6.75286 16.0623 3.75286C14.7685 1.8122 12.2289 0.586195 11.0623 0.252861C9.89561 -0.0804721 6.86228 -0.347139 4.06228 1.25286C1.26228 2.85286 0.228946 6.58619 0.0622793 8.25286C-0.104387 9.25286 -0.0377207 12.0529 1.56228 15.2529C3.16228 18.4529 6.56228 20.5862 8.06228 21.2529L15.5623 25.2529C16.5623 26.0862 18.6623 27.9529 19.0623 28.7529C19.5623 29.7529 19.5623 32.7529 17.0623 34.7529C15.0623 36.3529 12.2289 35.7529 11.0623 35.2529C8.56229 33.7529 9.56228 32.7529 9.56228 31.2529C9.56228 30.0529 11.5623 26.4195 12.5623 24.7529L7.56228 22.2529C6.06228 25.0862 2.96228 30.9529 2.56228 31.7529C2.16228 32.5529 1.39561 34.7529 1.06228 35.7529C0.895613 36.7529 0.862279 39.1529 2.06228 40.7529C3.26228 42.3529 5.56228 43.4195 6.56228 43.7529C10.5623 44.7529 11.5623 44.7529 16.5623 43.7529C20.5623 42.9529 24.5623 39.4195 26.0623 37.7529C26.8956 36.7529 28.3623 34.0529 27.5623 31.2529C26.7623 28.4529 22.5623 25.0862 20.5623 23.7529L9.56228 17.7529C7.96228 16.9529 6.59228 16.2829 5.06228 14.7529C4.56228 14.2529 2.06228 12.3957 5.06228 10.2529C7.86228 8.25286 11.5623 8.08619 13.0623 8.25286C14.2289 8.25286 16.2623 8.95286 15.0623 11.7529C13.8623 14.5529 11.8956 16.9195 11.0623 17.7529Z" 
              fill="url(#mobiusGradient)" 
              stroke="#1A3C34" 
              stroke-width="0.5"
              stroke-linejoin="round"/>
    </g>
    
    <!-- Стилизованная цифра 8 -->
    <text x="15" y="22" 
          text-anchor="middle" 
          font-family="Arial Black, sans-serif" 
          font-size="6" 
          fill="white" 
          font-weight="900"
          text-shadow="0 1px 2px rgba(0,0,0,0.3)"
          style="animation: pulse 3s ease-in-out infinite;">
        8
    </text>
</svg>