<?xml version="1.0" encoding="UTF-8"?>
<svg width="400" height="120" viewBox="0 0 400 120" fill="none" xmlns="http://www.w3.org/2000/svg">
    <defs>
        <linearGradient id="logoGradient" x1="0%" y1="0%" x2="100%" y2="0%">
            <stop offset="0%" stop-color="#FF6B35"/>
            <stop offset="100%" stop-color="#2E8B57"/>
        </linearGradient>
        
        <linearGradient id="iconGradient" x1="0%" y1="0%" x2="100%" y2="100%">
            <stop offset="0%" stop-color="#FF6B35"/>
            <stop offset="100%" stop-color="#2E8B57"/>
        </linearGradient>
    </defs>
    
    <!-- Иконка ленты Мёбиуса -->
    <g transform="translate(10, 20) scale(0.8)">
        <path d="M11.0623 17.7529L15.5623 20.2529C18.8715 15.0529 19.2745 11.4195 19.0623 10.2529C18.0623 5.75286 18.0623 6.75286 16.0623 3.75286C14.7685 1.8122 12.2289 0.586195 11.0623 0.252861C9.89561 -0.0804721 6.86228 -0.347139 4.06228 1.25286C1.26228 2.85286 0.228946 6.58619 0.0622793 8.25286C-0.104387 9.25286 -0.0377207 12.0529 1.56228 15.2529C3.16228 18.4529 6.56228 20.5862 8.06228 21.2529L15.5623 25.2529C16.5623 26.0862 18.6623 27.9529 19.0623 28.7529C19.5623 29.7529 19.5623 32.7529 17.0623 34.7529C15.0623 36.3529 12.2289 35.7529 11.0623 35.2529C8.56229 33.7529 9.56228 32.7529 9.56228 31.2529C9.56228 30.0529 11.5623 26.4195 12.5623 24.7529L7.56228 22.2529C6.06228 25.0862 2.96228 30.9529 2.56228 31.7529C2.16228 32.5529 1.39561 34.7529 1.06228 35.7529C0.895613 36.7529 0.862279 39.1529 2.06228 40.7529C3.26228 42.3529 5.56228 43.4195 6.56228 43.7529C10.5623 44.7529 11.5623 44.7529 16.5623 43.7529C20.5623 42.9529 24.5623 39.4195 26.0623 37.7529C26.8956 36.7529 28.3623 34.0529 27.5623 31.2529C26.7623 28.4529 22.5623 25.0862 20.5623 23.7529L9.56228 17.7529C7.96228 16.9529 6.59228 16.2829 5.06228 14.7529C4.56228 14.2529 2.06228 12.3957 5.06228 10.2529C7.86228 8.25286 11.5623 8.08619 13.0623 8.25286C14.2289 8.25286 16.2623 8.95286 15.0623 11.7529C13.8623 14.5529 11.8956 16.9195 11.0623 17.7529Z" 
              fill="url(#iconGradient)" 
              stroke="#1A3C34" 
              stroke-width="0.3"/>
        
        <text x="15" y="22" 
              text-anchor="middle" 
              font-family="Arial Black" 
              font-size="6" 
              fill="white" 
              font-weight="900">
            8
        </text>
    </g>
    
    <!-- Текст логотипа -->
    <g transform="translate(100, 0)">
        <text x="0" y="45" 
              font-family="'Segoe UI', Arial, sans-serif" 
              font-size="36" 
              font-weight="800" 
              fill="#1A3C34"
              letter-spacing="1">
            NAZIA
        </text>
        
        <text x="125" y="45" 
              font-family="'Segoe UI', Arial, sans-serif" 
              font-size="36" 
              font-weight="800" 
              fill="#FF6B35"
              letter-spacing="1">
            8
        </text>
        
        <text x="155" y="45" 
              font-family="'Segoe UI', Arial, sans-serif" 
              font-size="36" 
              font-weight="800" 
              fill="#1A3C34"
              letter-spacing="1">
            PROMO
        </text>
        
        <!-- Подзаголовок -->
        <text x="0" y="85" 
              font-family="'Segoe UI', Arial, sans-serif" 
              font-size="16" 
              font-weight="600" 
              fill="#2E8B57"
              letter-spacing="4">
            PREMIUM SOLUTIONS
        </text>
    </g>
</svg>